<svg width="192" height="192" viewBox="0 0 192 192" fill="none" xmlns="http://www.w3.org/2000/svg">
<g clip-path="url(#clip0_1415_21515)">
<rect x="30" y="30" width="132" height="132" fill="#FFFF57"/>
<path d="M63.7241 112.138C72.6369 112.138 79.8621 119.363 79.8621 128.276C79.8621 137.189 72.6369 144.414 63.7241 144.414C54.8114 144.414 47.5862 137.189 47.5862 128.276C47.5862 119.363 54.8114 112.138 63.7241 112.138Z" fill="#111317"/>
<path d="M128.276 112.138C137.189 112.138 144.414 119.363 144.414 128.276C144.414 137.189 137.189 144.414 128.276 144.414C119.363 144.414 112.138 137.189 112.138 128.276C112.138 119.363 119.363 112.138 128.276 112.138Z" fill="#111317"/>
<path d="M96 79.8621C104.913 79.8621 112.138 87.0873 112.138 96C112.138 104.913 104.913 112.138 96 112.138C87.0873 112.138 79.8621 104.913 79.8621 96C79.8621 87.0873 87.0873 79.8621 96 79.8621Z" fill="#111317"/>
<path d="M63.7241 47.5862C72.6369 47.5862 79.8621 54.8114 79.8621 63.7241C79.8621 72.6369 72.6369 79.8621 63.7241 79.8621C54.8114 79.8621 47.5862 72.6369 47.5862 63.7241C47.5862 54.8114 54.8114 47.5862 63.7241 47.5862Z" fill="#111317"/>
<path d="M128.276 47.5862C137.189 47.5862 144.414 54.8114 144.414 63.7241C144.414 72.6369 137.189 79.8621 128.276 79.8621C119.363 79.8621 112.138 72.6369 112.138 63.7241C112.138 54.8114 119.363 47.5862 128.276 47.5862Z" fill="#111317"/>
<path fill-rule="evenodd" clip-rule="evenodd" d="M144.414 18C160.754 18 174 31.2462 174 47.5862V144.414C174 160.754 160.754 174 144.414 174H47.5862C31.2462 174 18 160.754 18 144.414V47.5862C18 31.2462 31.2462 18 47.5862 18H144.414ZM47.5862 34.1379C40.1589 34.1379 34.1379 40.1589 34.1379 47.5862V144.414C34.1379 151.841 40.1589 157.862 47.5862 157.862H144.414C151.841 157.862 157.862 151.841 157.862 144.414V47.5862C157.862 40.1589 151.841 34.1379 144.414 34.1379H47.5862Z" fill="#111317"/>
</g>
<defs>
<clipPath id="clip0_1415_21515">
<rect width="192" height="192" fill="white"/>
</clipPath>
</defs>
</svg>
